<svg width="29" height="30" viewBox="0 0 29 30" fill="none" xmlns="http://www.w3.org/2000/svg">
<g clip-path="url(#clip0_601_447)">
<ellipse cx="14.5455" cy="15.1812" rx="13.9091" ry="14.3958" fill="white"/>
<path d="M11.4268 20.522H9.15297V13.2115H11.4268V20.522ZM10.2777 12.2336C9.56862 12.2336 8.98183 11.6223 8.98183 10.8888C8.98183 10.1798 9.56862 9.59301 10.2777 9.59301C11.0111 9.59301 11.5979 10.1798 11.5979 10.8888C11.5979 11.6223 11.0111 12.2336 10.2777 12.2336ZM19.9108 20.522H17.6614V16.9768C17.6614 16.121 17.637 15.0453 16.4634 15.0453C15.2898 15.0453 15.1187 15.9499 15.1187 16.9034V20.522H12.8449V13.2115H15.0209V14.214H15.0453C15.3632 13.6516 16.0967 13.0404 17.1969 13.0404C19.4951 13.0404 19.9352 14.5563 19.9352 16.5122V20.522H19.9108Z" fill="black"/>
</g>
<defs>
<clipPath id="clip0_601_447">
<rect width="27.8182" height="28.7916" fill="white" transform="translate(0.636368 0.785156)"/>
</clipPath>
</defs>
</svg>
