<svg width="28" height="30" viewBox="0 0 28 30" fill="none" xmlns="http://www.w3.org/2000/svg">
<g clip-path="url(#clip0_601_441)">
<ellipse cx="13.9091" cy="15.1812" rx="13.9091" ry="14.3958" fill="white"/>
<path d="M18.8723 13.2849C18.8723 13.4071 18.8723 13.5049 18.8723 13.6272C18.8723 17.0257 16.3051 20.9132 11.5864 20.9132C10.1194 20.9132 8.77467 20.4975 7.64999 19.764C7.84559 19.7885 8.04119 19.8129 8.26123 19.8129C9.45926 19.8129 10.5595 19.3973 11.4397 18.7127C10.315 18.6883 9.36146 17.9548 9.04362 16.9279C9.21477 16.9523 9.36146 16.9768 9.53261 16.9768C9.75266 16.9768 9.99715 16.9279 10.1927 16.879C9.01917 16.6345 8.13899 15.6076 8.13899 14.3607V14.3362C8.48128 14.5318 8.89692 14.6296 9.31257 14.6541C8.60353 14.1895 8.16343 13.4071 8.16343 12.527C8.16343 12.038 8.28568 11.5979 8.50573 11.2311C9.77711 12.7715 11.6842 13.7983 13.8113 13.9206C13.7624 13.725 13.7379 13.5294 13.7379 13.3338C13.7379 11.9157 14.8871 10.7666 16.3051 10.7666C17.0386 10.7666 17.6988 11.06 18.1878 11.5734C18.7501 11.4512 19.3124 11.2311 19.8014 10.9377C19.6058 11.549 19.2146 12.038 18.6768 12.3558C19.1902 12.3069 19.7036 12.1602 20.1437 11.9646C19.8014 12.4781 19.3613 12.9182 18.8723 13.2849Z" fill="black"/>
</g>
<defs>
<clipPath id="clip0_601_441">
<rect width="27.8182" height="28.7916" fill="white" transform="translate(0 0.785156)"/>
</clipPath>
</defs>
</svg>
