<svg width="29" height="30" viewBox="0 0 29 30" fill="none" xmlns="http://www.w3.org/2000/svg">
<g clip-path="url(#clip0_601_450)">
<ellipse cx="14.3637" cy="15.1812" rx="13.9091" ry="14.3958" fill="white"/>
<path d="M20.8319 12.6248C21.1253 13.6516 21.1253 15.8521 21.1253 15.8521C21.1253 15.8521 21.1253 18.0281 20.8319 19.0794C20.6852 19.6662 20.2206 20.1063 19.6583 20.253C18.607 20.522 14.4505 20.522 14.4505 20.522C14.4505 20.522 10.2697 20.522 9.21833 20.253C8.65599 20.1063 8.19145 19.6662 8.04475 19.0794C7.75136 18.0281 7.75136 15.8521 7.75136 15.8521C7.75136 15.8521 7.75136 13.6516 8.04475 12.6248C8.19145 12.038 8.65599 11.5734 9.21833 11.4267C10.2697 11.1333 14.4505 11.1333 14.4505 11.1333C14.4505 11.1333 18.607 11.1333 19.6583 11.4267C20.2206 11.5734 20.6852 12.038 20.8319 12.6248ZM13.0814 17.8325L16.5532 15.8521L13.0814 13.8717V17.8325Z" fill="black"/>
</g>
<defs>
<clipPath id="clip0_601_450">
<rect width="27.8182" height="28.7916" fill="white" transform="translate(0.454552 0.785156)"/>
</clipPath>
</defs>
</svg>
